<?xml version="1.0" standalone="no"?>
<!DOCTYPE svg PUBLIC "-//W3C//DTD SVG 20010904//EN"
 "http://www.w3.org/TR/2001/REC-SVG-20010904/DTD/svg10.dtd">
<svg version="1.0" xmlns="http://www.w3.org/2000/svg"
 width="700.000000pt" height="700.000000pt" viewBox="0 0 700.000000 700.000000"
 preserveAspectRatio="xMidYMid meet">
<metadata>
Created by potrace 1.14, written by Peter Selinger 2001-2017
</metadata>
<g transform="translate(0.000000,700.000000) scale(0.100000,-0.100000)"
fill="#000000" stroke="none">
<path d="M3248 6995 c-2 -2 -32 -6 -68 -9 -36 -3 -81 -8 -100 -11 -19 -3 -53
-7 -75 -10 -56 -6 -98 -13 -185 -31 -41 -9 -84 -17 -95 -19 -11 -1 -20 -3 -20
-5 0 -1 -11 -4 -25 -6 -14 -2 -72 -18 -130 -35 -58 -16 -112 -32 -120 -34 -26
-6 -213 -75 -247 -90 -17 -8 -34 -15 -37 -15 -3 0 -33 -13 -66 -29 -33 -16
-60 -27 -60 -24 0 2 -12 -4 -27 -14 -26 -17 -101 -56 -113 -57 -25 -4 -393
-234 -440 -274 -8 -7 -51 -41 -95 -74 -251 -192 -517 -471 -700 -733 -27 -38
-52 -72 -55 -75 -3 -3 -10 -14 -17 -25 -6 -11 -35 -57 -62 -103 -28 -46 -51
-88 -51 -93 0 -5 -4 -9 -10 -9 -5 0 -10 -4 -10 -8 0 -4 -23 -50 -50 -102 -28
-52 -51 -97 -52 -100 -1 -3 -14 -34 -31 -70 -86 -191 -189 -498 -222 -662 -3
-16 -7 -38 -10 -50 -13 -62 -32 -162 -40 -223 -4 -22 -8 -50 -10 -61 -19 -121
-28 -626 -12 -759 3 -33 9 -80 12 -105 11 -107 17 -143 44 -275 82 -396 223
-764 418 -1085 37 -62 73 -120 78 -129 25 -41 175 -248 211 -291 123 -146 257
-288 375 -395 117 -107 415 -335 438 -335 5 0 11 -3 13 -7 4 -11 173 -110 288
-171 81 -42 156 -76 346 -158 42 -18 222 -78 309 -102 59 -17 131 -34 285 -68
38 -9 108 -20 185 -30 22 -3 51 -7 65 -10 158 -25 682 -25 842 1 13 2 46 7 73
10 74 11 87 13 120 19 17 4 46 9 65 12 51 8 213 48 300 74 253 74 522 187 734
309 49 28 90 51 92 51 10 0 260 174 346 240 156 122 330 285 458 429 36 41 70
79 76 85 65 68 263 353 352 508 47 80 182 351 182 364 0 3 8 24 19 47 53 118
147 417 177 562 17 81 54 301 59 350 4 33 9 71 11 85 9 46 11 554 3 620 -4 36
-10 90 -13 120 -10 88 -27 198 -41 260 -3 14 -8 39 -11 55 -24 134 -133 493
-174 575 -10 19 -18 37 -18 40 1 12 -52 127 -119 258 -266 520 -660 966 -1153
1303 -72 49 -286 179 -296 179 -3 0 -18 9 -32 19 -15 10 -30 19 -34 20 -5 1
-60 26 -123 56 -63 30 -119 55 -123 55 -5 0 -26 9 -48 19 -82 39 -419 145
-524 165 -14 2 -56 11 -95 19 -92 20 -207 37 -350 53 -53 6 -581 14 -587 9z"/>
</g>
</svg>
