<svg xmlns="http://www.w3.org/2000/svg" width="48" height="48"><path fill="#dc4c2c" d="M8 24c0 9.941 8.059 18 18 18s18-8.059 18-18H8z"/><path fill="#f7a278" d="M26 6v18h18c0-9.941-8.059-18-18-18z"/><path fill="#c06346" d="M26 6C16.059 6 8 14.059 8 24h18V6z"/><path fill="#9b341f" d="M22.319 34H5.681A1.682 1.682 0 0 1 4 32.319V15.681C4 14.753 4.753 14 5.681 14h16.638c.928 0 1.681.753 1.681 1.681v16.638c0 .928-.753 1.681-1.681 1.681z"/><path fill="#fff" d="M14.673 19.012H10v10h2.024v-3.521H14.3a3.397 3.397 0 0 0 3.397-3.397v-.058a3.024 3.024 0 0 0-3.024-3.024zm.897 3.346c0 .859-.697 1.556-1.556 1.556h-1.99v-3.325h1.99c.859 0 1.556.697 1.556 1.556v.213z"/></svg>