<?xml version="1.0" encoding="utf-8"?><svg viewBox="0 0 28 24" xmlns="http://www.w3.org/2000/svg" xmlns:xlink="http://www.w3.org/1999/xlink"><style>:root>svg{display:none}:root>svg:target{display:block}</style><svg viewBox="0 0 24 24" id="heart" xmlns="http://www.w3.org/2000/svg"><path d="M12.62 20.81c-.34.12-.9.12-1.24 0C8.48 19.82 2 15.69 2 8.69 2 5.6 4.49 3.1 7.56 3.1c1.82 0 3.43.88 4.44 2.24a5.53 5.53 0 0 1 4.44-2.24C19.51 3.1 22 5.6 22 8.69c0 7-6.48 11.13-9.38 12.12Z"/></svg><svg viewBox="0 0 24 24" id="location" xmlns="http://www.w3.org/2000/svg"><path d="M2.07 4.6c.8-3.46 6.01-3.46 6.8 0 .47 2.03-.82 3.75-1.94 4.82-.82.78-2.11.77-2.93 0C2.89 8.35 1.6 6.63 2.07 4.6Zm13 12c.8-3.46 6.04-3.46 6.84 0 .47 2.03-.82 3.75-1.95 4.82-.82.78-2.12.77-2.94 0-1.13-1.07-2.42-2.79-1.95-4.82ZM12 5h2.68c1.85 0 2.71 2.29 1.32 3.51L8.01 15.5C6.62 16.71 7.48 19 9.32 19H12M5.486 5.5h.012m12.988 12h.012"/></svg><svg viewBox="0 0 24 24" id="medal" xmlns="http://www.w3.org/2000/svg"><path d="M12 15c3.728 0 6.75-2.91 6.75-6.5S15.728 2 12 2 5.25 4.91 5.25 8.5 8.272 15 12 15Z"/><path d="m7.52 13.52-.01 7.38c0 .9.63 1.34 1.41.97l2.68-1.27c.22-.11.59-.11.81 0l2.69 1.27c.77.36 1.41-.07 1.41-.97v-7.56"/></svg><svg viewBox="0 0 24 24" id="people" xmlns="http://www.w3.org/2000/svg"><path d="M18 7.16a.605.605 0 0 0-.19 0 2.573 2.573 0 0 1-2.48-2.58c0-1.43 1.15-2.58 2.58-2.58a2.58 2.58 0 0 1 2.58 2.58A2.589 2.589 0 0 1 18 7.16Zm-1.03 7.28c1.37.23 2.88-.01 3.94-.72 1.41-.94 1.41-2.48 0-3.42-1.07-.71-2.6-.95-3.97-.71M5.97 7.16c.06-.01.13-.01.19 0a2.573 2.573 0 0 0 2.48-2.58C8.64 3.15 7.49 2 6.06 2a2.58 2.58 0 0 0-2.58 2.58c.01 1.4 1.11 2.53 2.49 2.58ZM7 14.44c-1.37.23-2.88-.01-3.94-.72-1.41-.94-1.41-2.48 0-3.42 1.07-.71 2.6-.95 3.97-.71M12 14.63a.605.605 0 0 0-.19 0 2.573 2.573 0 0 1-2.48-2.58c0-1.43 1.15-2.58 2.58-2.58a2.58 2.58 0 0 1 2.58 2.58c-.01 1.4-1.11 2.54-2.49 2.58Zm-2.91 3.15c-1.41.94-1.41 2.48 0 3.42 1.6 1.07 4.22 1.07 5.82 0 1.41-.94 1.41-2.48 0-3.42-1.59-1.06-4.22-1.06-5.82 0Z"/></svg><svg viewBox="0 0 24 24" id="tell" xmlns="http://www.w3.org/2000/svg"><path d="M21.97 18.33c0 .36-.08.73-.25 1.09-.17.36-.39.7-.68 1.02-.49.54-1.03.93-1.64 1.18-.6.25-1.25.38-1.95.38-1.02 0-2.11-.24-3.26-.73s-2.3-1.15-3.44-1.98a28.75 28.75 0 0 1-3.28-2.8 28.414 28.414 0 0 1-2.79-3.27c-.82-1.14-1.48-2.28-1.96-3.41C2.24 8.67 2 7.58 2 6.54c0-.68.12-1.33.36-1.93.24-.61.62-1.17 1.15-1.67C4.15 2.31 4.85 2 5.59 2c.28 0 .56.06.81.18.26.12.49.3.67.56l2.32 3.27c.18.25.31.48.4.7.09.21.14.42.14.61 0 .24-.07.48-.21.71-.13.23-.32.47-.56.71l-.76.79c-.11.11-.16.24-.16.4 0 .08.01.15.03.23.03.08.06.14.08.2.18.33.49.76.93 1.28.45.52.93 1.05 1.45 1.58.54.53 1.06 1.02 1.59 1.47.52.44.95.74 1.29.92.05.02.11.05.18.08.08.03.16.04.25.04.17 0 .3-.06.41-.17l.76-.75c.25-.25.49-.44.72-.56.23-.14.46-.21.71-.21.19 0 .39.04.61.13.22.09.45.22.7.39l3.31 2.35c.26.18.44.39.55.64.1.25.16.5.16.78Z"/></svg><svg viewBox="0 0 28 18" id="vk" xmlns="http://www.w3.org/2000/svg"><path d="m22.74 9.448.003-.005.02-.027.106-.148c.09-.127.22-.31.375-.532.31-.445.727-1.055 1.156-1.714.428-.656.873-1.373 1.237-2.028.245-.444.484-.913.643-1.34l.009-.004.034-.113a3.61 3.61 0 0 0 .09-.301c.112-.375.209-.996-.18-1.545-.4-.564-1.053-.691-1.571-.691h-2.624c-.516 0-.977.137-1.355.418a2.205 2.205 0 0 0-.706.92l-.003.007-.002.006-.01.023a17.446 17.446 0 0 1-.21.467c-.148.318-.365.765-.64 1.274-.534.992-1.26 2.175-2.085 3.107V2.95c0-.372-.042-.891-.361-1.319-.376-.504-.93-.63-1.379-.63h-4.126c-.95 0-1.668.733-1.668 1.591 0 .443.18.77.331.984.069.098.144.19.198.255l.002.003.005.006c.058.07.103.126.148.185.14.189.319.471.359 1.112v3.087c-.205-.257-.43-.572-.669-.941-.769-1.194-1.597-2.844-2.213-4.61l-.004-.011c-.138-.38-.334-.834-.71-1.172-.425-.38-.93-.488-1.415-.488H2.9c-.504 0-1.047.114-1.446.522-.4.409-.454.91-.454 1.209 0 .313.088.762.227 1.262.147.53.375 1.198.705 1.979.66 1.563 1.733 3.596 3.404 5.895C7.652 15.13 10.986 17 14.154 17c.834 0 1.58-.077 2.114-.428.697-.46.761-1.165.761-1.573 0-.435-.004-.838-.007-1.177a95.72 95.72 0 0 1-.003-.558l.001-.35c.022.01.046.024.07.038.311.175.8.53 1.547 1.236a28.679 28.679 0 0 1 1.205 1.259c.22.241.429.469.619.655.238.235.508.469.836.637.349.18.713.261 1.108.261h2.624c.495 0 1.129-.116 1.567-.614.477-.54.463-1.223.3-1.768l-.004-.011-.003-.012c-.18-.55-.574-1.146-.972-1.67a22.95 22.95 0 0 0-1.386-1.63A50.755 50.755 0 0 0 23.02 9.73l-.197-.198c-.033-.033-.06-.06-.082-.084Zm-5.685 2.967Zm-.444.39Zm-6.1-3.506v-.002.002Zm.717-.381a.058.058 0 0 1 .008.004l-.008-.004Zm5.805-.785V8.13v.002Z"/></svg></svg>